# xmcd
#
# Track frame offsets:
#	150
#	8213
#	20067
#	35740
#	51693
#	68329
#	90867
#	106303
#	118634
#	137722
#	153135
#	164461
#
# Disc length: 2408 seconds
#
# Revision: 1
# Processed by: cddbd v1.5.2PL0 Copyright (c) Steve Scherf et al.
# Submitted via: audiograbber 1.83.01
#
DISCID=9609660c
DTITLE=Partibrejkers - Sloboda ili nista
DYEAR=2007
DGENRE=
TTITLE0=Sloboda ili nista
TTITLE1=Cutanje
TTITLE2=Nista ne ocekujem
TTITLE3=Dugo te nema
TTITLE4=Kamenje
TTITLE5=Srce kuca tu je
TTITLE6=Puno ljubavi
TTITLE7=Lobotomija
TTITLE8=Biraj
TTITLE9=Zamena za ljubav
TTITLE10=Buduci dani
TTITLE11=Koliko je sati
EXTD=
EXTT0=
EXTT1=
EXTT2=
EXTT3=
EXTT4=
EXTT5=
EXTT6=
EXTT7=
EXTT8=
EXTT9=
EXTT10=
EXTT11=
PLAYORDER=
